<svg width="26" height="26" viewBox="0 0 26 26" fill="none" xmlns="http://www.w3.org/2000/svg">
<mask id="mask0_4812_146201" style="mask-type:alpha" maskUnits="userSpaceOnUse" x="1" y="0" width="25" height="25">
<circle cx="13.1719" cy="12.9959" r="12.0001" fill="#D9D9D9"/>
</mask>
<g mask="url(#mask0_4812_146201)">
<rect x="1.17188" y="0.995872" width="24.0001" height="24.0001" fill="#004692"/>
<path d="M10.1719 15.6626L10.9102 17.2463L12.5778 16.851L11.831 18.4306L13.1719 19.5213L11.5024 19.9072L11.507 21.6626L10.1719 20.5644L8.83672 21.6626L8.8414 19.9072L7.17188 19.5213L8.51277 18.4306L7.76607 16.851L9.43349 17.2463L10.1719 15.6626Z" fill="#F5F7F8"/>
<path d="M18.1719 16.6626L18.6641 17.7184L19.7758 17.4549L19.2779 18.5079L20.1719 19.2351L19.0589 19.4924L19.062 20.6626L18.1719 19.9305L17.2818 20.6626L17.2849 19.4924L16.1719 19.2351L17.0658 18.5079L16.568 17.4549L17.6796 17.7184L18.1719 16.6626Z" fill="#F5F7F8"/>
<path d="M15.8385 8.66257L16.2487 9.54242L17.1751 9.32281L16.7603 10.2003L17.5052 10.8063L16.5777 11.0207L16.5803 11.9959L15.8385 11.3858L15.0968 11.9959L15.0994 11.0207L14.1719 10.8063L14.9168 10.2003L14.502 9.32281L15.4283 9.54242L15.8385 8.66257Z" fill="#F5F7F8"/>
<path d="M19.1706 5.9959L19.5808 6.87574L20.5072 6.65613L20.0923 7.53364L20.8373 8.13961L19.9097 8.35401L19.9123 9.32924L19.1706 8.71911L18.4288 9.32924L18.4314 8.35401L17.5039 8.13961L18.2488 7.53364L17.834 6.65613L18.7604 6.87574L19.1706 5.9959Z" fill="#F5F7F8"/>
<path d="M22.5046 9.32925L22.9148 10.2091L23.8412 9.98948L23.4263 10.867L24.1712 11.473L23.2437 11.6874L23.2463 12.6626L22.5046 12.0525L21.7628 12.6626L21.7654 11.6874L20.8379 11.473L21.5828 10.867L21.168 9.98948L22.0943 10.2091L22.5046 9.32925Z" fill="#F5F7F8"/>
<circle cx="20.0052" cy="13.8293" r="0.833337" fill="#F5F7F8"/>
<mask id="mask1_4812_146201" style="mask-type:alpha" maskUnits="userSpaceOnUse" x="1" y="0" width="13" height="13">
<path d="M1.16992 12.9959V12.9959C1.16992 6.36848 6.54253 0.995872 13.17 0.995872V0.995872L13.17 12.9959L1.16992 12.9959Z" fill="#002F6C"/>
</mask>
<g mask="url(#mask1_4812_146201)">
<path d="M5.34344 2.04051L4.63633 2.74762L14.4784 12.5897L15.1855 11.8826L5.34344 2.04051Z" fill="#F5F7F8"/>
<path d="M3.45782 3.92613L2.2793 5.10465L12.1213 14.9467L13.2999 13.7682L3.45782 3.92613Z" fill="#F5F7F8"/>
<path d="M3.45782 3.92613L4.63633 2.74762L14.4784 12.5897L13.2999 13.7682L3.45782 3.92613Z" fill="#DD2033"/>
<path d="M13.17 4.99588V6.66255L6.8366 6.66255L6.8366 12.9959H5.16992V4.99588H13.17Z" fill="#F5F7F8"/>
<path d="M13.17 0.329208V1.99588L2.8366 1.99588L2.8366 12.9959H1.16992V0.329208H13.17Z" fill="#F5F7F8"/>
<path fill-rule="evenodd" clip-rule="evenodd" d="M2.16992 12.9959H5.16994L5.16994 4.99589L13.17 4.9959V1.99588H5.16994H2.16992L2.16992 4.99589L2.16992 12.9959Z" fill="#DD2033"/>
</g>
</g>
<rect x="1" y="0.995872" width="24.0001" height="24.0001" rx="12.0001" stroke="#EDEDED"/>
</svg>
