<svg width="26" height="26" viewBox="0 0 26 26" fill="none" xmlns="http://www.w3.org/2000/svg">
<mask id="mask0_4812_146216" style="mask-type:alpha" maskUnits="userSpaceOnUse" x="1" y="0" width="24" height="25">
<circle cx="13.0001" cy="12.9963" r="12.0001" transform="rotate(-90 13.0001 12.9963)" fill="#D9D9D9"/>
</mask>
<g mask="url(#mask0_4812_146216)">
<rect x="1" y="0.996185" width="24.0001" height="24.0001" fill="#DD2033"/>
<rect x="19" y="24.9964" width="12.0001" height="24.0001" transform="rotate(180 19 24.9964)" fill="#F5F7F8"/>
<path d="M14.3692 9.19336L12.9697 7.32964L11.5701 9.19336L10.4627 8.8551L11.355 12.7864L10.2457 11.001L9.84805 11.7609L8.17137 11.5114L8.41857 13.2039L7.66602 13.6052L10.6064 15.4663L10.2464 16.6475L12.4508 16.0504L12.4508 18.663L13.4339 18.663L13.4339 16.0293L15.7163 16.6475L15.3609 15.4816L15.3635 15.4842L18.3327 13.5983L17.5932 13.2039L17.8404 11.5114L16.1637 11.7609L15.773 11.0142L14.5817 12.9251L14.5273 12.7466L15.4061 8.87664L14.3692 9.19336Z" fill="#DD2033"/>
</g>
<rect x="1" y="0.996201" width="24.0001" height="24.0001" rx="12.0001" stroke="#EDEDED"/>
</svg>
