<svg width="14" height="14" viewBox="0 0 14 14" fill="none" xmlns="http://www.w3.org/2000/svg">
<path d="M7.0036 14C7.95951 14 8.86018 13.8151 9.70561 13.4452C10.551 13.0801 11.2956 12.5757 11.9393 11.9321C12.5829 11.2884 13.0873 10.5462 13.4524 9.70561C13.8175 8.86018 14 7.95711 14 6.9964C14 6.04049 13.8151 5.13982 13.4452 4.29439C13.0801 3.44896 12.5757 2.70441 11.9321 2.06073C11.2884 1.41705 10.5438 0.912678 9.69841 0.547607C8.85298 0.182536 7.95231 0 6.9964 0C6.04049 0 5.13982 0.182536 4.29439 0.547607C3.45377 0.912678 2.70921 1.41705 2.06073 2.06073C1.41705 2.70441 0.912678 3.44896 0.547607 4.29439C0.182536 5.13982 0 6.04049 0 6.9964C0 7.95711 0.182536 8.86018 0.547607 9.70561C0.917482 10.5462 1.42426 11.2884 2.06794 11.9321C2.71161 12.5757 3.45377 13.0801 4.29439 13.4452C5.13982 13.8151 6.04289 14 7.0036 14ZM7.0036 12.7174C6.21101 12.7174 5.46886 12.5685 4.77715 12.2707C4.08543 11.9777 3.47778 11.5694 2.95419 11.0458C2.43061 10.5222 2.0223 9.91457 1.72928 9.22285C1.43627 8.53114 1.28976 7.78899 1.28976 6.9964C1.28976 6.20381 1.43627 5.46166 1.72928 4.76994C2.0223 4.07823 2.43061 3.47058 2.95419 2.94699C3.47778 2.4234 4.08303 2.0151 4.76994 1.72208C5.46166 1.42906 6.20381 1.28255 6.9964 1.28255C7.78899 1.28255 8.53114 1.42906 9.22285 1.72208C9.91937 2.0151 10.5294 2.4234 11.053 2.94699C11.5766 3.47058 11.9849 4.07823 12.2779 4.76994C12.5709 5.46166 12.7174 6.20381 12.7174 6.9964C12.7174 7.78899 12.5709 8.53114 12.2779 9.22285C11.9849 9.91457 11.5766 10.5222 11.053 11.0458C10.5294 11.5694 9.92177 11.9777 9.23006 12.2707C8.53834 12.5685 7.79619 12.7174 7.0036 12.7174ZM5.80751 10.772H8.56716C8.71127 10.772 8.83376 10.724 8.93464 10.6279C9.03551 10.5318 9.08595 10.4117 9.08595 10.2676C9.08595 10.1331 9.03551 10.0178 8.93464 9.92177C8.83376 9.8209 8.71127 9.77046 8.56716 9.77046H7.76737V6.44159C7.76737 6.24464 7.71933 6.08852 7.62326 5.97324C7.52719 5.85315 7.38789 5.7931 7.20535 5.7931H5.9228C5.77869 5.7931 5.6562 5.84114 5.55533 5.93721C5.45445 6.03328 5.40401 6.15097 5.40401 6.29027C5.40401 6.43918 5.45445 6.56167 5.55533 6.65775C5.6562 6.74901 5.77869 6.79465 5.9228 6.79465H6.62892V9.77046H5.80751C5.66341 9.77046 5.54092 9.8209 5.44004 9.92177C5.33917 10.0178 5.28873 10.1331 5.28873 10.2676C5.28873 10.4117 5.33917 10.5318 5.44004 10.6279C5.54092 10.724 5.66341 10.772 5.80751 10.772ZM6.94596 4.69789C7.20055 4.69789 7.41431 4.61143 7.58724 4.4385C7.76497 4.26077 7.85383 4.04701 7.85383 3.79722C7.85383 3.54263 7.76497 3.32647 7.58724 3.14874C7.41431 2.97101 7.20055 2.88214 6.94596 2.88214C6.69617 2.88214 6.48242 2.97101 6.30468 3.14874C6.13176 3.32647 6.04529 3.54263 6.04529 3.79722C6.04529 4.04701 6.13176 4.26077 6.30468 4.4385C6.48242 4.61143 6.69617 4.69789 6.94596 4.69789Z" fill="#595A5F"/>
</svg>
