<svg width="20" height="20" viewBox="0 0 20 20" fill="none" xmlns="http://www.w3.org/2000/svg">
<path d="M10.0002 3.62779C12.0618 3.62779 12.3429 3.62779 13.1863 3.62779C13.9359 3.62779 14.3108 3.81521 14.5919 3.90892C14.9667 4.09633 15.2478 4.19004 15.529 4.47116C15.8101 4.75229 15.9975 5.03341 16.0912 5.40825C16.1849 5.68937 16.2786 6.0642 16.3723 6.81387C16.3723 7.65724 16.3723 7.84466 16.3723 9.99995C16.3723 12.1552 16.3723 12.3427 16.3723 13.186C16.3723 13.9357 16.1849 14.3105 16.0912 14.5916C15.9038 14.9665 15.8101 15.2476 15.529 15.5287C15.2478 15.8099 14.9667 15.9973 14.5919 16.091C14.3108 16.1847 13.9359 16.2784 13.1863 16.3721C12.3429 16.3721 12.1555 16.3721 10.0002 16.3721C7.8449 16.3721 7.65749 16.3721 6.81411 16.3721C6.06445 16.3721 5.68962 16.1847 5.40849 16.091C5.03366 15.9036 4.75253 15.8099 4.47141 15.5287C4.19028 15.2476 4.00287 14.9665 3.90916 14.5916C3.81545 14.3105 3.72174 13.9357 3.62803 13.186C3.62803 12.3427 3.62803 12.1552 3.62803 9.99995C3.62803 7.84466 3.62803 7.65724 3.62803 6.81387C3.62803 6.0642 3.81545 5.68937 3.90916 5.40825C4.09658 5.03341 4.19028 4.75229 4.47141 4.47116C4.75253 4.19004 5.03366 4.00262 5.40849 3.90892C5.68962 3.81521 6.06445 3.7215 6.81411 3.62779C7.65749 3.62779 7.93861 3.62779 10.0002 3.62779ZM10.0002 2.22217C7.8449 2.22217 7.65749 2.22217 6.81411 2.22217C5.97074 2.22217 5.40849 2.40958 4.93995 2.597C4.47141 2.78442 4.00287 3.06554 3.53433 3.53408C3.06579 4.00262 2.87837 4.37746 2.59725 4.93971C2.40983 5.40825 2.31612 5.9705 2.22241 6.81387C2.22241 7.65724 2.22241 7.93837 2.22241 9.99995C2.22241 12.1552 2.22241 12.3427 2.22241 13.186C2.22241 14.0294 2.40983 14.5916 2.59725 15.0602C2.78466 15.5287 3.06579 15.9973 3.53433 16.4658C4.00287 16.9344 4.3777 17.1218 4.93995 17.4029C5.40849 17.5903 5.97074 17.684 6.81411 17.7777C7.65749 17.7777 7.93861 17.7777 10.0002 17.7777C12.0618 17.7777 12.3429 17.7777 13.1863 17.7777C14.0296 17.7777 14.5919 17.5903 15.0604 17.4029C15.529 17.2155 15.9975 16.9344 16.4661 16.4658C16.9346 15.9973 17.122 15.6224 17.4031 15.0602C17.5906 14.5916 17.6843 14.0294 17.778 13.186C17.778 12.3427 17.778 12.0615 17.778 9.99995C17.778 7.93837 17.778 7.65724 17.778 6.81387C17.778 5.9705 17.5906 5.40825 17.4031 4.93971C17.2157 4.47116 16.9346 4.00262 16.4661 3.53408C15.9975 3.06554 15.6227 2.87813 15.0604 2.597C14.5919 2.40958 14.0296 2.31588 13.1863 2.22217C12.3429 2.22217 12.1555 2.22217 10.0002 2.22217Z" fill="white"/>
<path d="M10.0002 5.9705C7.7512 5.9705 5.97074 7.75095 5.97074 9.99995C5.97074 12.2489 7.7512 14.0294 10.0002 14.0294C12.2492 14.0294 14.0296 12.2489 14.0296 9.99995C14.0296 7.75095 12.2492 5.9705 10.0002 5.9705ZM10.0002 12.6238C8.59457 12.6238 7.37636 11.4993 7.37636 9.99995C7.37636 8.59433 8.50086 7.37612 10.0002 7.37612C11.4058 7.37612 12.624 8.50062 12.624 9.99995C12.624 11.4056 11.4058 12.6238 10.0002 12.6238Z" fill="white"/>
<path d="M14.1234 6.81387C14.6409 6.81387 15.0604 6.39432 15.0604 5.87679C15.0604 5.35925 14.6409 4.93971 14.1234 4.93971C13.6058 4.93971 13.1863 5.35925 13.1863 5.87679C13.1863 6.39432 13.6058 6.81387 14.1234 6.81387Z" fill="white"/>
</svg>
