<svg width="45" height="24" viewBox="0 0 45 24" fill="none" xmlns="http://www.w3.org/2000/svg">
<path d="M27.4997 5.3335H17.4997C16.5792 5.3335 15.833 6.07969 15.833 7.00016V17.0002C15.833 17.9206 16.5792 18.6668 17.4997 18.6668H27.4997C28.4201 18.6668 29.1663 17.9206 29.1663 17.0002V7.00016C29.1663 6.07969 28.4201 5.3335 27.4997 5.3335Z" stroke="#026FD3" stroke-width="1.5" stroke-linecap="round" stroke-linejoin="round"/>
<path d="M19.167 11.1665V15.3332" stroke="#026FD3" stroke-width="1.5" stroke-linecap="round" stroke-linejoin="round"/>
<path d="M19.167 8.6665V8.67484" stroke="#026FD3" stroke-width="1.5" stroke-linecap="round" stroke-linejoin="round"/>
<path d="M22.5 15.3332V11.1665" stroke="#026FD3" stroke-width="1.5" stroke-linecap="round" stroke-linejoin="round"/>
<path d="M25.8333 15.3332V12.8332C25.8333 12.3911 25.6577 11.9672 25.3452 11.6547C25.0326 11.3421 24.6087 11.1665 24.1667 11.1665C23.7246 11.1665 23.3007 11.3421 22.9882 11.6547C22.6756 11.9672 22.5 12.3911 22.5 12.8332" stroke="#026FD3" stroke-width="1.5" stroke-linecap="round" stroke-linejoin="round"/>
</svg>
