<svg width="21" height="20" viewBox="0 0 21 20" fill="none" xmlns="http://www.w3.org/2000/svg">
<g clip-path="url(#clip0_46_26928)">
<path d="M15.4997 3.3335H5.49967C4.5792 3.3335 3.83301 4.07969 3.83301 5.00016V15.0002C3.83301 15.9206 4.5792 16.6668 5.49967 16.6668H15.4997C16.4201 16.6668 17.1663 15.9206 17.1663 15.0002V5.00016C17.1663 4.07969 16.4201 3.3335 15.4997 3.3335Z" stroke="black" stroke-width="1.5" stroke-linecap="round" stroke-linejoin="round"/>
<path d="M7.16699 9.1665V13.3332" stroke="black" stroke-width="1.5" stroke-linecap="round" stroke-linejoin="round"/>
<path d="M7.16699 6.6665V6.67484" stroke="black" stroke-width="1.5" stroke-linecap="round" stroke-linejoin="round"/>
<path d="M10.5 13.3332V9.1665" stroke="black" stroke-width="1.5" stroke-linecap="round" stroke-linejoin="round"/>
<path d="M13.8333 13.3332V10.8332C13.8333 10.3911 13.6577 9.96722 13.3452 9.65466C13.0326 9.3421 12.6087 9.1665 12.1667 9.1665C11.7246 9.1665 11.3007 9.3421 10.9882 9.65466C10.6756 9.96722 10.5 10.3911 10.5 10.8332" stroke="black" stroke-width="1.5" stroke-linecap="round" stroke-linejoin="round"/>
</g>
<defs>
<clipPath id="clip0_46_26928">
<rect width="20" height="20" fill="white" transform="translate(0.5)"/>
</clipPath>
</defs>
</svg>
