<svg width="20" height="20" viewBox="0 0 20 20" fill="none" xmlns="http://www.w3.org/2000/svg">
<g clip-path="url(#clip0_841_27621)">
<path d="M10 17.5C14.1421 17.5 17.5 14.1421 17.5 10C17.5 5.85786 14.1421 2.5 10 2.5C5.85786 2.5 2.5 5.85786 2.5 10C2.5 14.1421 5.85786 17.5 10 17.5Z" stroke="white" stroke-linecap="round" stroke-linejoin="round"/>
<path d="M10 10.833C11.3807 10.833 12.5 9.71372 12.5 8.33301C12.5 6.9523 11.3807 5.83301 10 5.83301C8.61929 5.83301 7.5 6.9523 7.5 8.33301C7.5 9.71372 8.61929 10.833 10 10.833Z" stroke="white" stroke-linecap="round" stroke-linejoin="round"/>
<path d="M5.64681 15.0516C6.3055 13.9977 7.46067 13.3574 8.7035 13.3574H11.2861C12.5353 13.3574 13.6965 14.001 14.3586 15.0604C14.5401 15.3508 14.4499 15.7139 14.1846 15.8751C12.5779 16.8511 11.2806 17.2936 10.0165 17.2882C8.7504 17.2828 7.44653 16.8278 5.82677 15.8667C5.55766 15.707 5.46518 15.3422 5.64681 15.0516Z" stroke="white"/>
</g>
<defs>
<clipPath id="clip0_841_27621">
<rect width="20" height="20" fill="white"/>
</clipPath>
</defs>
</svg>
