<svg width="28" height="28" viewBox="0 0 28 28" fill="none" xmlns="http://www.w3.org/2000/svg">
<g clip-path="url(#clip0_332_4678)">
<path d="M14 24.5C19.799 24.5 24.5 19.799 24.5 14C24.5 8.20101 19.799 3.5 14 3.5C8.20101 3.5 3.5 8.20101 3.5 14C3.5 19.799 8.20101 24.5 14 24.5Z" stroke="white" stroke-width="1.28571" stroke-linecap="round" stroke-linejoin="round"/>
<path d="M14 15.167C15.933 15.167 17.5 13.6 17.5 11.667C17.5 9.734 15.933 8.16699 14 8.16699C12.067 8.16699 10.5 9.734 10.5 11.667C10.5 13.6 12.067 15.167 14 15.167Z" fill="white" stroke="white" stroke-width="0.857143" stroke-linecap="round" stroke-linejoin="round"/>
<path d="M7.61518 20.2157C8.47666 18.8374 9.98744 18 11.6129 18H16.3871C18.0126 18 19.5233 18.8374 20.3848 20.2157L20.8431 20.949C21.2098 21.5356 21.0483 22.3107 20.4609 22.6761C15.6343 25.6779 12.4141 25.6144 7.5621 22.672C6.96466 22.3097 6.79582 21.5267 7.16613 20.9342L7.61518 20.2157Z" fill="white"/>
</g>
<defs>
<clipPath id="clip0_332_4678">
<rect width="28" height="28" fill="white"/>
</clipPath>
</defs>
</svg>
