<svg width="12" height="12" viewBox="0 0 12 12" fill="none" xmlns="http://www.w3.org/2000/svg">
<g clip-path="url(#clip0_978_323)">
<path d="M7 3C7 2.73478 6.89464 2.48043 6.70711 2.29289C6.51957 2.10536 6.26522 2 6 2C5.73478 2 5.48043 2.10536 5.29289 2.29289C5.10536 2.48043 5 2.73478 5 3C5 3.26522 5.10536 3.51957 5.29289 3.70711C5.48043 3.89464 5.73478 4 6 4C6.26522 4 6.51957 3.89464 6.70711 3.70711C6.89464 3.51957 7 3.26522 7 3Z" stroke="#2C3E50" stroke-linecap="round" stroke-linejoin="round"/>
<path d="M3.5 7C3.5 6.73478 3.39464 6.48043 3.20711 6.29289C3.01957 6.10536 2.76522 6 2.5 6C2.23478 6 1.98043 6.10536 1.79289 6.29289C1.60536 6.48043 1.5 6.73478 1.5 7C1.5 7.26522 1.60536 7.51957 1.79289 7.70711C1.98043 7.89464 2.23478 8 2.5 8C2.76522 8 3.01957 7.89464 3.20711 7.70711C3.39464 7.51957 3.5 7.26522 3.5 7Z" stroke="#2C3E50" stroke-linecap="round" stroke-linejoin="round"/>
<path d="M10.5 7C10.5 6.73478 10.3946 6.48043 10.2071 6.29289C10.0196 6.10536 9.76522 6 9.5 6C9.23478 6 8.98043 6.10536 8.79289 6.29289C8.60536 6.48043 8.5 6.73478 8.5 7C8.5 7.26522 8.60536 7.51957 8.79289 7.70711C8.98043 7.89464 9.23478 8 9.5 8C9.76522 8 10.0196 7.89464 10.2071 7.70711C10.3946 7.51957 10.5 7.26522 10.5 7Z" stroke="#2C3E50" stroke-linecap="round" stroke-linejoin="round"/>
<path d="M7 9C7 8.73478 6.89464 8.48043 6.70711 8.29289C6.51957 8.10536 6.26522 8 6 8C5.73478 8 5.48043 8.10536 5.29289 8.29289C5.10536 8.48043 5 8.73478 5 9C5 9.26522 5.10536 9.51957 5.29289 9.70711C5.48043 9.89464 5.73478 10 6 10C6.26522 10 6.51957 9.89464 6.70711 9.70711C6.89464 9.51957 7 9.26522 7 9Z" stroke="#2C3E50" stroke-linecap="round" stroke-linejoin="round"/>
<path d="M6 4V8" stroke="#2C3E50" stroke-linecap="round" stroke-linejoin="round"/>
<path d="M3.1582 6.24795L5.3422 3.75195" stroke="#2C3E50" stroke-linecap="round" stroke-linejoin="round"/>
<path d="M8.84218 6.24793L6.65918 3.75293" stroke="#2C3E50" stroke-linecap="round" stroke-linejoin="round"/>
</g>
<defs>
<clipPath id="clip0_978_323">
<rect width="12" height="12" fill="white"/>
</clipPath>
</defs>
</svg>
