<svg width="20" height="20" viewBox="0 0 20 20" fill="none" xmlns="http://www.w3.org/2000/svg">
<g clip-path="url(#clip0_351_27599)">
<path d="M8.33301 4.16667C8.33301 3.72464 8.50861 3.30072 8.82117 2.98816C9.13373 2.67559 9.55765 2.5 9.99968 2.5C10.4417 2.5 10.8656 2.67559 11.1782 2.98816C11.4908 3.30072 11.6663 3.72464 11.6663 4.16667C12.6234 4.61919 13.4392 5.3236 14.0264 6.20442C14.6136 7.08523 14.95 8.10923 14.9997 9.16667V11.6667C15.0624 12.1848 15.2459 12.6809 15.5354 13.1151C15.8248 13.5493 16.2122 13.9095 16.6663 14.1667H3.33301C3.78712 13.9095 4.17452 13.5493 4.464 13.1151C4.75348 12.6809 4.93696 12.1848 4.99968 11.6667V9.16667C5.04931 8.10923 5.38576 7.08523 5.97297 6.20442C6.56018 5.3236 7.376 4.61919 8.33301 4.16667" stroke="white" stroke-linecap="round" stroke-linejoin="round"/>
<path d="M7.5 14.167V15.0003C7.5 15.6634 7.76339 16.2993 8.23223 16.7681C8.70107 17.2369 9.33696 17.5003 10 17.5003C10.663 17.5003 11.2989 17.2369 11.7678 16.7681C12.2366 16.2993 12.5 15.6634 12.5 15.0003V14.167" stroke="white" stroke-linecap="round" stroke-linejoin="round"/>
</g>
<defs>
<clipPath id="clip0_351_27599">
<rect width="20" height="20" fill="white"/>
</clipPath>
</defs>
</svg>
