<svg width="20" height="20" viewBox="0 0 20 20" fill="none" xmlns="http://www.w3.org/2000/svg">
<path d="M17.778 5.21373C17.1946 5.50091 16.6113 5.59664 15.9307 5.69236C16.6113 5.30946 17.0974 4.7351 17.2919 3.96928C16.7085 4.35219 16.028 4.54364 15.2502 4.7351C14.6669 4.16074 13.7919 3.77783 12.9169 3.77783C10.8752 3.77783 9.31964 5.69236 9.80575 7.60689C7.18075 7.51117 4.84741 6.26672 3.19463 4.35219C2.31963 5.78809 2.80575 7.60689 4.16686 8.56416C3.68075 8.56416 3.19463 8.3727 2.70852 8.18125C2.70852 9.61715 3.77797 10.9573 5.2363 11.3402C4.75019 11.436 4.26408 11.5317 3.77797 11.436C4.16686 12.6804 5.33352 13.6377 6.79186 13.6377C5.62519 14.4992 3.87519 14.9778 2.22241 14.7864C3.68075 15.6479 5.33352 16.2223 7.08352 16.2223C13.0141 16.2223 16.3196 11.3402 16.1252 6.84108C16.8057 6.45817 17.3891 5.88382 17.778 5.21373Z" fill="white"/>
</svg>
