<svg width="132" height="32" viewBox="0 0 132 32" fill="none" xmlns="http://www.w3.org/2000/svg">
<path d="M31.916 27.9556L39.6954 6.53076H48.6053L51.9952 19.4236L64.1016 6.53076H72.9804L65.1199 28.2081H57.5372L60.8428 19.133L52.4144 27.9556H45.0542L42.7628 18.8095L39.4374 27.9556H31.916Z" fill="white"/>
<path d="M67.5896 27.9556L72.5605 14.2869H80.5031L77.6958 22.042H88.1878C88.4884 22.042 88.6819 21.9822 88.7682 21.8627C88.8535 21.7442 88.9274 21.5999 88.994 21.4288L91.8689 13.444C91.9532 13.1008 92.0198 12.8474 92.0624 12.6856C92.1051 12.5238 91.975 12.4434 91.6744 12.4434H73.2408L75.371 6.53076H96.5486C97.4307 6.53076 98.1515 6.74715 98.7121 7.17685C99.2707 7.6086 99.6805 8.15164 99.9395 8.80906C100.196 9.46854 100.314 10.2053 100.294 11.0214C100.272 11.8416 100.122 12.6371 99.8407 13.4131L97.0344 21.1053C96.7535 21.8802 96.3333 22.6716 95.7758 23.4784C95.2151 24.2862 94.563 25.0199 93.8224 25.6773C93.0776 26.3368 92.2725 26.8799 91.3998 27.3096C90.5282 27.7393 89.6503 27.9556 88.7693 27.9556H67.5896Z" fill="white"/>
<path d="M102.229 13.414C102.511 12.6381 102.933 11.8426 103.505 11.0224C104.076 10.2063 104.738 9.4654 105.492 8.81004C106.246 8.15262 107.051 7.60958 107.911 7.17782C108.772 6.74813 109.644 6.53174 110.527 6.53174H127.411C128.27 6.53174 128.983 6.74813 129.542 7.17782C130.102 7.60958 130.515 8.1588 130.782 8.82652C131.053 9.49631 131.183 10.231 131.172 11.0399C131.16 11.8467 131.016 12.6391 130.734 13.4151L127.958 21.0753C127.678 21.8502 127.248 22.6457 126.667 23.4629C126.087 24.2841 125.42 25.0219 124.665 25.6783C123.913 26.3378 123.099 26.8808 122.228 27.3105C121.356 27.7402 120.49 27.9566 119.629 27.9566H102.745C101.861 27.9566 101.148 27.7402 100.599 27.3105C100.053 26.8808 99.648 26.3296 99.389 25.6608C99.1311 24.9931 99.0073 24.2584 99.0177 23.4474C99.0291 22.6426 99.1727 21.8492 99.4535 21.0743L102.229 13.414ZM111.042 12.4763C110.784 12.4763 110.601 12.5701 110.494 12.7525C110.386 12.9369 110.277 13.1657 110.169 13.446L107.297 21.3979C107.233 21.57 107.2 21.7204 107.2 21.8492C107.2 21.9574 107.35 22.01 107.653 22.01H119.112C119.37 22.01 119.555 21.9234 119.662 21.7503C119.769 21.5792 119.856 21.4082 119.921 21.233L122.76 13.3811C122.868 13.0585 122.928 12.8287 122.939 12.6865C122.949 12.5485 122.803 12.4763 122.503 12.4763H111.042Z" fill="white"/>
<path d="M16.9577 30.2903L7.15836 31.9998L0 24.8011L3.43043 15.2696L13.5064 13.3354L10.2091 22.5002L16.9577 30.2903Z" fill="#5A97D1"/>
<path d="M30.8675 17.6947L24.1376 10.461L13.812 12.6579L17.6783 1.91146L28.4262 0L34.5226 7.51292L30.8675 17.6947Z" fill="white"/>
<path d="M11.1309 22.3742L20.3466 20.5719L23.7313 11.165L30.5485 18.4781L27.116 28.0179L17.5268 29.6315L11.1309 22.3742Z" fill="#92C53E"/>
</svg>
